<?xml version="1.0" encoding="UTF-8" standalone="no" ?>
<!DOCTYPE svg PUBLIC "-//W3C//DTD SVG 1.1//EN" "http://www.w3.org/Graphics/SVG/1.1/DTD/svg11.dtd">
<svg xmlns="http://www.w3.org/2000/svg" xmlns:xlink="http://www.w3.org/1999/xlink" version="1.1" width="1080" height="1080" viewBox="0 0 1080 1080" xml:space="preserve">
<desc>Created with Fabric.js 5.2.4</desc>
<defs>
</defs>
<g transform="matrix(1 0 0 1 540 540)" id="624c7eb8-cb7e-4bb3-95ed-1c1d20ed44e5"  >
<rect style="stroke: none; stroke-width: 1; stroke-dasharray: none; stroke-linecap: butt; stroke-dashoffset: 0; stroke-linejoin: miter; stroke-miterlimit: 4; fill: rgb(255,255,255); fill-rule: nonzero; opacity: 1; visibility: hidden;" vector-effect="non-scaling-stroke"  x="-540" y="-540" rx="0" ry="0" width="1080" height="1080" />
</g>
<g transform="matrix(1 0 0 1 540 540)" id="eb7f626a-c9ed-41dd-92a0-0c76cc953045"  >
</g>
<g transform="matrix(1 0 0 1 540 540)"  >
<g style="" vector-effect="non-scaling-stroke"   >
		<g transform="matrix(1 0 0 1 -80.09 23.16)"  >
<path style="stroke: none; stroke-width: 1; stroke-dasharray: none; stroke-linecap: butt; stroke-dashoffset: 0; stroke-linejoin: miter; stroke-miterlimit: 4; fill: rgb(35,34,34); fill-rule: nonzero; opacity: 1;" vector-effect="non-scaling-stroke"  transform=" translate(-25.77, -73.16)" d="M 9.68 98.57 C 6.278156176282987 97.82026832762509 3.0128413685854927 96.54854964735448 -1.2434497875801753e-14 94.79999999999998 L 6.67 82 C 11.91545505276128 85.1163368095572 17.898716964086418 86.77355880461552 23.99999999999998 86.8 C 25.703502065634158 86.87221110124663 27.40407092399084 86.60012008390956 29.000000000000007 86 C 30.18 85.46 30.76 84.72 30.76 83.8 C 30.76 82.88 30.17 82.21 28.970000000000002 81.66 C 27.123866023089455 80.92350646519105 25.220937330799888 80.33824720130586 23.279999999999994 79.91 C 20.388697379697856 79.20044023674379 17.546137786749775 78.30525108173781 14.770000000000003 77.22999999999999 C 12.503828377243797 76.31664804760807 10.483165210978784 74.88505956710166 8.870000000000001 73.04999999999998 C 7.113535025229189 70.98066124185745 6.2091504530694 68.32112716404369 6.34 65.61 C 6.279060904608004 61.97245208992613 7.386664238011042 58.41129706860497 9.500000000000002 55.45 C 11.784656024366374 52.377536316081255 14.91073117661541 50.032979951894475 18.49999999999999 48.7 C 22.919523815022917 47.019236888447864 27.622921164889377 46.21099965431919 32.34999999999998 46.32 C 35.9309835318368 46.29929478777426 39.503092492071445 46.67830728778038 42.99999999999996 47.44999999999999 C 45.99601456945414 48.100641099341196 48.87562056086613 49.20325369792636 51.54 50.72000000000001 L 45.33 63.33 C 43.27795684890856 62.041215927391164 41.037807132823986 61.0797058835898 38.68999999999998 60.48 C 36.26379946873395 59.8257339809407 33.76285120311434 59.48958502050796 31.249999999999996 59.48 C 29.337396156562217 59.37245483530153 27.42622628637132 59.71495839626764 25.669999999999995 60.48 C 24.349999999999994 61.16 23.669999999999995 61.97 23.669999999999995 62.89 C 23.669999999999995 63.81 24.269999999999996 64.56 25.469999999999995 65.1 C 27.383110829895397 65.85066926777709 29.356987749641515 66.4361412354984 31.369999999999994 66.85 C 34.22194876452074 67.49763360097077 37.028046656853235 68.3327817832126 39.76999999999998 69.35 C 42.03513171969903 70.22727469107404 44.05793257441407 71.63294986129975 45.669999999999995 73.44999999999999 C 47.39692856138288 75.49510517363905 48.28959380065135 78.11597031613128 48.169999999999995 80.78999999999999 C 48.2271273147468 84.37754545669493 47.118231930576954 87.88670806482736 45.00999999999999 90.78999999999999 C 42.70154042483449 93.82936753576071 39.58188602655663 96.1552432038101 36.01 97.49999999999999 C 31.618045141466705 99.2165224082593 26.935021198056837 100.0655115205526 22.22 100 C 17.997962638172893 100.0245182899758 13.788120093328372 99.54444852609002 9.68 98.57 Z" stroke-linecap="round" />
</g>
		<g transform="matrix(1 0 0 1 -30.47 23.19)"  >
<path style="stroke: none; stroke-width: 1; stroke-dasharray: none; stroke-linecap: butt; stroke-dashoffset: 0; stroke-linejoin: miter; stroke-miterlimit: 4; fill: rgb(35,34,34); fill-rule: nonzero; opacity: 1;" vector-effect="non-scaling-stroke"  transform=" translate(-75.39, -73.19)" d="M 87.42 89.88 L 67.84 89.88 L 62.71 98.88 L 44.44 98.88 L 77.16 47.49 L 94.16 47.49 L 106.34 98.83000000000001 L 89.11 98.83000000000001 Z M 85 77.41 L 82.51 64.28 L 75 77.41 Z" stroke-linecap="round" />
</g>
		<g transform="matrix(1 0 0 1 24.87 23.16)"  >
<path style="stroke: none; stroke-width: 1; stroke-dasharray: none; stroke-linecap: butt; stroke-dashoffset: 0; stroke-linejoin: miter; stroke-miterlimit: 4; fill: rgb(35,34,34); fill-rule: nonzero; opacity: 1;" vector-effect="non-scaling-stroke"  transform=" translate(-130.73, -73.16)" d="M 119.4 47.49 L 136.71 47.49 L 129.16 85.41 L 152.32999999999998 85.41 L 149.61999999999998 98.83 L 109.14 98.83 Z" stroke-linecap="round" />
</g>
		<g transform="matrix(1 0 0 1 74.53 23.16)"  >
<path style="stroke: none; stroke-width: 1; stroke-dasharray: none; stroke-linecap: butt; stroke-dashoffset: 0; stroke-linejoin: miter; stroke-miterlimit: 4; fill: rgb(35,34,34); fill-rule: nonzero; opacity: 1;" vector-effect="non-scaling-stroke"  transform=" translate(-180.39, -73.16)" d="M 179 60.55 L 177.83 66.55 L 199.54000000000002 66.55 L 197.07 79 L 175.29 79 L 174 85.77 L 199.74 85.77 L 197.10000000000002 98.83 L 154.39 98.83 L 164.66 47.489999999999995 L 206.39 47.489999999999995 L 203.75 60.55 Z" stroke-linecap="round" />
</g>
		<g transform="matrix(1 0 0 1 -81.49 -29)"  >
<path style="stroke: none; stroke-width: 1; stroke-dasharray: none; stroke-linecap: butt; stroke-dashoffset: 0; stroke-linejoin: miter; stroke-miterlimit: 4; fill: rgb(255,0,0); fill-rule: nonzero; opacity: 1;" vector-effect="non-scaling-stroke"  transform=" translate(-24.37, -21)" d="M 12.08 40.83 C 9.483719102021308 40.194139768727 7.008089608582685 39.14039297206554 4.749999999999996 37.71 L 9.25 29.17 C 11.274142518334521 30.47322763147628 13.472634430339504 31.483254543576578 15.779999999999994 32.17 C 18.03102647451156 32.82965223082295 20.364312914856235 33.16634580085826 22.71 33.17 C 24.464111187584287 33.25617086028666 26.21406067415392 32.93083778548409 27.820000000000004 32.22 C 28.895529349631385 31.783062265382558 29.61007158062689 30.750509481031912 29.64 29.59 C 29.61372746295213 28.567545396651763 28.962457233558123 27.666092091332015 27.999999999999996 27.32 C 26.352119708468326 26.58837577042875 24.64193361426103 26.00604234500395 22.889999999999986 25.57999999999999 C 20.67211545071779 25.022605678738266 18.4939347533643 24.317703643245036 16.369999999999997 23.470000000000002 C 14.633299411326028 22.764685028645793 13.095332090233839 21.645539165529605 11.89 20.21 C 10.577785674431281 18.58131638541823 9.905669532533146 16.52940625909429 10 14.440000000000001 C 9.947900855627312 11.717110709631836 10.779420866417226 9.050633037900479 12.37 6.840000000000005 C 14.10720930417858 4.569680590242747 16.450564553906254 2.8364296658879606 19.129999999999995 1.8400000000000034 C 22.40523760168953 0.5669490697867856 25.89652854422681 -0.05795125455840444 29.40999999999998 3.552713678800501e-15 C 32.129342782104814 -0.018568451950143217 34.84139321671166 0.28351637368675564 37.49000000000001 0.8999999999999986 C 39.78471433386681 1.3989412354737993 41.98327780966346 2.2668841130156365 43.99999999999999 3.4699999999999895 L 39.8 12 C 38.185127261963 10.973991148330077 36.42079483696645 10.204836668599274 34.569999999999986 9.720000000000002 C 32.66144396660089 9.193653761572282 30.689785167878053 8.931214535803711 28.70999999999999 8.94 C 26.872149598541828 8.835032133811053 25.037841518940752 9.199828862587253 23.379999999999995 10.000000000000004 C 22.242741536250747 10.491554936343777 21.488372602834954 11.592000339213207 21.439999999999998 12.83 C 21.46866475050185 13.870157892851338 22.131265310273612 14.786689206068566 23.11 15.14 C 24.787596875887328 15.872350007336799 26.52802819021295 16.45137811767975 28.31000000000001 16.870000000000005 C 30.519506002805116 17.38852327468332 32.69118465407435 18.056732090458457 34.81000000000001 18.869999999999994 C 36.51486814259588 19.55939414315676 38.03029302735712 20.646248641956106 39.230000000000004 22.04 C 40.51033971873101 23.61730479767344 41.16531100793236 25.610695677851453 41.07000000000001 27.64 C 41.113394229357375 30.34620365645198 40.274438730687905 32.992950292421796 38.68000000000001 35.18000000000001 C 36.92231649007751 37.4550769703064 34.558444467165884 39.18812097537358 31.860000000000007 40.18 C 28.59374582228492 41.44583719213134 25.112379931574083 42.06399191614049 21.61 42 C 18.39563302254105 42.03204795313062 15.191156322101303 41.638633709739814 12.080000000000002 40.830000000000005 Z" stroke-linecap="round" />
</g>
		<g transform="matrix(1 0 0 1 -37.72 -28.59)"  >
<path style="stroke: none; stroke-width: 1; stroke-dasharray: none; stroke-linecap: butt; stroke-dashoffset: 0; stroke-linejoin: miter; stroke-miterlimit: 4; fill: rgb(255,0,0); fill-rule: nonzero; opacity: 1;" vector-effect="non-scaling-stroke"  transform=" translate(-68.14, -21.41)" d="M 54.53 40.28 C 52.120543881849606 39.225204239335355 50.08771565598201 37.46434960114816 48.7 35.230000000000004 C 47.32124317624949 32.88837508065598 46.628235804558095 30.206436552210295 46.7 27.490000000000016 C 46.723112104099215 26.055120899842407 46.88046491708063 24.625553854245315 47.17 23.22000000000001 L 51.64 0.81 L 63.07 0.81 L 58.63 23 C 58.41060387863955 24.046160626496608 58.29338637815735 25.111165345163425 58.28 26.18 Q 58.28 32.519999999999996 64.98 32.53 C 67.12240797911889 32.64265570026541 69.21093200090178 31.83489902285112 70.72 30.310000000000002 C 72.13 28.820000000000004 73.17999999999999 26.39 73.87 23.000000000000004 L 78.32 0.81 L 89.58 0.81 L 85 23.74 Q 81.32 42 63.59 42 C 60.48114246763266 42.08871084994182 57.390047696272966 41.50188049599715 54.529999999999994 40.28 Z" stroke-linecap="round" />
</g>
		<g transform="matrix(1 0 0 1 4.23 -28.98)"  >
<path style="stroke: none; stroke-width: 1; stroke-dasharray: none; stroke-linecap: butt; stroke-dashoffset: 0; stroke-linejoin: miter; stroke-miterlimit: 4; fill: rgb(255,0,0); fill-rule: nonzero; opacity: 1;" vector-effect="non-scaling-stroke"  transform=" translate(-110.09, -21.02)" d="M 126.6 4.22 Q 130.88 7.63 130.87 13.8 C 130.94545097345627 16.942939459892145 130.09331280017832 20.038461803636487 128.42000000000002 22.700000000000006 C 126.70659208144055 25.300055965386726 124.27470055194873 27.34631898091627 121.42000000000002 28.59 C 118.0966320731878 30.03065782896709 114.50137809614898 30.736746608138844 110.88000000000002 30.66 L 102.80000000000003 30.660000000000004 L 100.72000000000003 41.230000000000004 L 89.3 41.230000000000004 L 97.38 0.81 L 114.47 0.81 Q 122.33 0.81 126.6 4.22 Z M 117.27 19.87 C 118.66691159149204 18.55956262590481 119.40117429395343 16.69086404814057 119.27 14.78 C 119.37028124307457 13.345416842902784 118.75670773066476 11.953652534265897 117.63 11.059999999999999 C 116.25789598061556 10.164605085193209 114.63595255969506 9.73021851025986 113 9.82 L 107 9.82 L 104.6 21.66 L 111.41 21.66 C 113.51620014437125 21.79739076653836 115.60007132536174 21.16084991091157 117.27 19.87 Z" stroke-linecap="round" />
</g>
		<g transform="matrix(1 0 0 1 45.28 -28.98)"  >
<path style="stroke: none; stroke-width: 1; stroke-dasharray: none; stroke-linecap: butt; stroke-dashoffset: 0; stroke-linejoin: miter; stroke-miterlimit: 4; fill: rgb(255,0,0); fill-rule: nonzero; opacity: 1;" vector-effect="non-scaling-stroke"  transform=" translate(-151.14, -21.01)" d="M 148.83 9.64 L 147.5 16.46 L 165.5 16.46 L 163.79 25 L 145.79 25 L 144.35 32.39 L 165.54 32.39 L 163.69 41.22 L 131.28 41.22 L 139.36 0.81 L 171 0.81 L 169.21 9.64 Z" stroke-linecap="round" />
</g>
		<g transform="matrix(1 0 0 1 85.04 -28.98)"  >
<path style="stroke: none; stroke-width: 1; stroke-dasharray: none; stroke-linecap: butt; stroke-dashoffset: 0; stroke-linejoin: miter; stroke-miterlimit: 4; fill: rgb(255,0,0); fill-rule: nonzero; opacity: 1;" vector-effect="non-scaling-stroke"  transform=" translate(-190.9, -21.02)" d="M 208.77 23.24 C 206.68830731397 26.002085945189833 203.80306100047662 28.05249706628017 200.51000000000002 29.11 L 207.39000000000001 41.23 L 195.39000000000001 41.23 L 189.39000000000001 30.489999999999995 L 183.61 30.489999999999995 L 181.48000000000002 41.23 L 170.08 41.23 L 178.16 0.81 L 195.43 0.81 Q 203.17000000000002 0.81 207.43 4.220000000000001 C 210.2935174689113 6.507070558295473 211.88546879742705 10.029448848259111 211.71 13.689999999999996 C 211.7954727989309 17.10846528452988 210.76323799174077 20.46147290652503 208.77 23.239999999999988 Z M 198.49 11.06 C 197.10449097469004 10.152903137986192 195.46289006902344 9.717949051869397 193.81 9.82 L 187.81 9.82 L 185.38 21.66 L 192.2 21.66 C 194.31501977198022 21.79372645852141 196.40703548824314 21.15795258210194 198.08999999999997 19.870000000000005 C 199.5176209971043 18.575343486268537 200.28235221977707 16.703957946170235 200.17 14.780000000000003 C 200.26624208054824 13.337275257037042 199.6359898604246 11.941716769620394 198.49 11.059999999999999 Z" stroke-linecap="round" />
</g>
</g>
</g>
</svg>