<svg width="355" height="160" viewBox="0 0 355 160" fill="none" xmlns="http://www.w3.org/2000/svg">
<g clip-path="url(#clip0_89_1115)">
<rect width="355" height="160" rx="6" fill="white"/>
<path d="M61.4294 29.112C61.5094 27.512 62.0694 26.28 63.1094 25.416C64.1654 24.536 65.5494 24.096 67.2614 24.096C68.4294 24.096 69.4294 24.304 70.2614 24.72C71.0934 25.12 71.7174 25.672 72.1334 26.376C72.5654 27.064 72.7814 27.848 72.7814 28.728C72.7814 29.736 72.5174 30.592 71.9894 31.296C71.4774 31.984 70.8614 32.448 70.1414 32.688V32.784C71.0694 33.072 71.7894 33.584 72.3014 34.32C72.8294 35.056 73.0934 36 73.0934 37.152C73.0934 38.112 72.8694 38.968 72.4214 39.72C71.9894 40.472 71.3414 41.064 70.4774 41.496C69.6294 41.912 68.6054 42.12 67.4054 42.12C65.5974 42.12 64.1254 41.664 62.9894 40.752C61.8534 39.84 61.2534 38.496 61.1894 36.72H64.4534C64.4854 37.504 64.7494 38.136 65.2454 38.616C65.7574 39.08 66.4534 39.312 67.3334 39.312C68.1494 39.312 68.7734 39.088 69.2054 38.64C69.6534 38.176 69.8774 37.584 69.8774 36.864C69.8774 35.904 69.5734 35.216 68.9654 34.8C68.3574 34.384 67.4134 34.176 66.1334 34.176H65.4374V31.416H66.1334C68.4054 31.416 69.5414 30.656 69.5414 29.136C69.5414 28.448 69.3334 27.912 68.9174 27.528C68.5174 27.144 67.9334 26.952 67.1654 26.952C66.4134 26.952 65.8294 27.16 65.4134 27.576C65.0134 27.976 64.7814 28.488 64.7174 29.112H61.4294ZM75.7486 33.024C75.7486 30.256 76.2446 28.088 77.2366 26.52C78.2446 24.952 79.9086 24.168 82.2286 24.168C84.5486 24.168 86.2046 24.952 87.1966 26.52C88.2046 28.088 88.7086 30.256 88.7086 33.024C88.7086 35.808 88.2046 37.992 87.1966 39.576C86.2046 41.16 84.5486 41.952 82.2286 41.952C79.9086 41.952 78.2446 41.16 77.2366 39.576C76.2446 37.992 75.7486 35.808 75.7486 33.024ZM85.3966 33.024C85.3966 31.84 85.3166 30.848 85.1566 30.048C85.0126 29.232 84.7086 28.568 84.2446 28.056C83.7966 27.544 83.1246 27.288 82.2286 27.288C81.3326 27.288 80.6526 27.544 80.1886 28.056C79.7406 28.568 79.4366 29.232 79.2766 30.048C79.1326 30.848 79.0606 31.84 79.0606 33.024C79.0606 34.24 79.1326 35.264 79.2766 36.096C79.4206 36.912 79.7246 37.576 80.1886 38.088C80.6526 38.584 81.3326 38.832 82.2286 38.832C83.1246 38.832 83.8046 38.584 84.2686 38.088C84.7326 37.576 85.0366 36.912 85.1806 36.096C85.3246 35.264 85.3966 34.24 85.3966 33.024ZM90.8802 28.8C90.8802 27.584 91.2322 26.632 91.9362 25.944C92.6562 25.256 93.5762 24.912 94.6962 24.912C95.8162 24.912 96.7282 25.256 97.4322 25.944C98.1522 26.632 98.5122 27.584 98.5122 28.8C98.5122 30.032 98.1522 30.992 97.4322 31.68C96.7282 32.368 95.8162 32.712 94.6962 32.712C93.5762 32.712 92.6562 32.368 91.9362 31.68C91.2322 30.992 90.8802 30.032 90.8802 28.8ZM106.288 25.2L96.8562 42H93.5922L103 25.2H106.288ZM94.6722 26.928C93.7922 26.928 93.3522 27.552 93.3522 28.8C93.3522 30.064 93.7922 30.696 94.6722 30.696C95.1042 30.696 95.4402 30.544 95.6802 30.24C95.9202 29.92 96.0402 29.44 96.0402 28.8C96.0402 27.552 95.5842 26.928 94.6722 26.928ZM101.416 38.376C101.416 37.144 101.768 36.192 102.472 35.52C103.192 34.832 104.112 34.488 105.232 34.488C106.352 34.488 107.256 34.832 107.944 35.52C108.648 36.192 109 37.144 109 38.376C109 39.608 108.648 40.568 107.944 41.256C107.256 41.944 106.352 42.288 105.232 42.288C104.096 42.288 103.176 41.944 102.472 41.256C101.768 40.568 101.416 39.608 101.416 38.376ZM105.208 36.504C104.296 36.504 103.84 37.128 103.84 38.376C103.84 39.64 104.296 40.272 105.208 40.272C106.104 40.272 106.552 39.64 106.552 38.376C106.552 37.128 106.104 36.504 105.208 36.504ZM38.6409 49.248C40.4009 49.248 41.9449 49.592 43.2729 50.28C44.6169 50.968 45.6489 51.952 46.3689 53.232C47.1049 54.496 47.4729 55.968 47.4729 57.648C47.4729 59.328 47.1049 60.8 46.3689 62.064C45.6489 63.312 44.6169 64.28 43.2729 64.968C41.9449 65.656 40.4009 66 38.6409 66H32.7849V49.248H38.6409ZM38.5209 63.144C40.2809 63.144 41.6409 62.664 42.6009 61.704C43.5609 60.744 44.0409 59.392 44.0409 57.648C44.0409 55.904 43.5609 54.544 42.6009 53.568C41.6409 52.576 40.2809 52.08 38.5209 52.08H36.1449V63.144H38.5209ZM51.692 51.12C51.1 51.12 50.604 50.936 50.204 50.568C49.82 50.184 49.628 49.712 49.628 49.152C49.628 48.592 49.82 48.128 50.204 47.76C50.604 47.376 51.1 47.184 51.692 47.184C52.284 47.184 52.772 47.376 53.156 47.76C53.556 48.128 53.756 48.592 53.756 49.152C53.756 49.712 53.556 50.184 53.156 50.568C52.772 50.936 52.284 51.12 51.692 51.12ZM53.348 52.704V66H49.988V52.704H53.348ZM61.7557 66.216C60.6677 66.216 59.6917 66.024 58.8277 65.64C57.9637 65.24 57.2757 64.704 56.7637 64.032C56.2677 63.36 55.9957 62.616 55.9477 61.8H59.3317C59.3957 62.312 59.6437 62.736 60.0757 63.072C60.5237 63.408 61.0757 63.576 61.7317 63.576C62.3717 63.576 62.8677 63.448 63.2197 63.192C63.5877 62.936 63.7717 62.608 63.7717 62.208C63.7717 61.776 63.5477 61.456 63.0997 61.248C62.6677 61.024 61.9717 60.784 61.0117 60.528C60.0197 60.288 59.2037 60.04 58.5637 59.784C57.9397 59.528 57.3957 59.136 56.9317 58.608C56.4837 58.08 56.2597 57.368 56.2597 56.472C56.2597 55.736 56.4677 55.064 56.8837 54.456C57.3157 53.848 57.9237 53.368 58.7077 53.016C59.5077 52.664 60.4437 52.488 61.5157 52.488C63.0997 52.488 64.3637 52.888 65.3077 53.688C66.2517 54.472 66.7717 55.536 66.8677 56.88H63.6517C63.6037 56.352 63.3797 55.936 62.9797 55.632C62.5957 55.312 62.0757 55.152 61.4197 55.152C60.8117 55.152 60.3397 55.264 60.0037 55.488C59.6837 55.712 59.5237 56.024 59.5237 56.424C59.5237 56.872 59.7477 57.216 60.1957 57.456C60.6437 57.68 61.3397 57.912 62.2837 58.152C63.2437 58.392 64.0357 58.64 64.6597 58.896C65.2837 59.152 65.8197 59.552 66.2677 60.096C66.7317 60.624 66.9717 61.328 66.9877 62.208C66.9877 62.976 66.7717 63.664 66.3397 64.272C65.9237 64.88 65.3157 65.36 64.5157 65.712C63.7317 66.048 62.8117 66.216 61.7557 66.216ZM68.8818 59.352C68.8818 57.976 69.1618 56.776 69.7218 55.752C70.2818 54.712 71.0578 53.912 72.0498 53.352C73.0418 52.776 74.1778 52.488 75.4578 52.488C77.1058 52.488 78.4658 52.904 79.5378 53.736C80.6258 54.552 81.3538 55.704 81.7218 57.192H78.0978C77.9058 56.616 77.5778 56.168 77.1138 55.848C76.6658 55.512 76.1058 55.344 75.4338 55.344C74.4738 55.344 73.7138 55.696 73.1538 56.4C72.5938 57.088 72.3138 58.072 72.3138 59.352C72.3138 60.616 72.5938 61.6 73.1538 62.304C73.7138 62.992 74.4738 63.336 75.4338 63.336C76.7938 63.336 77.6818 62.728 78.0978 61.512H81.7218C81.3538 62.952 80.6258 64.096 79.5378 64.944C78.4498 65.792 77.0898 66.216 75.4578 66.216C74.1778 66.216 73.0418 65.936 72.0498 65.376C71.0578 64.8 70.2818 64 69.7218 62.976C69.1618 61.936 68.8818 60.728 68.8818 59.352ZM90.0873 66.216C88.8073 66.216 87.6553 65.936 86.6313 65.376C85.6073 64.8 84.7993 63.992 84.2073 62.952C83.6313 61.912 83.3433 60.712 83.3433 59.352C83.3433 57.992 83.6393 56.792 84.2313 55.752C84.8393 54.712 85.6633 53.912 86.7033 53.352C87.7433 52.776 88.9033 52.488 90.1833 52.488C91.4633 52.488 92.6233 52.776 93.6633 53.352C94.7033 53.912 95.5193 54.712 96.1113 55.752C96.7193 56.792 97.0233 57.992 97.0233 59.352C97.0233 60.712 96.7113 61.912 96.0873 62.952C95.4793 63.992 94.6473 64.8 93.5913 65.376C92.5513 65.936 91.3833 66.216 90.0873 66.216ZM90.0873 63.288C90.6953 63.288 91.2633 63.144 91.7913 62.856C92.3353 62.552 92.7673 62.104 93.0873 61.512C93.4073 60.92 93.5673 60.2 93.5673 59.352C93.5673 58.088 93.2313 57.12 92.5593 56.448C91.9033 55.76 91.0953 55.416 90.1353 55.416C89.1753 55.416 88.3673 55.76 87.7113 56.448C87.0713 57.12 86.7513 58.088 86.7513 59.352C86.7513 60.616 87.0633 61.592 87.6873 62.28C88.3273 62.952 89.1273 63.288 90.0873 63.288ZM112.04 52.704V66H108.656V64.32C108.224 64.896 107.656 65.352 106.952 65.688C106.264 66.008 105.512 66.168 104.696 66.168C103.656 66.168 102.736 65.952 101.936 65.52C101.136 65.072 100.504 64.424 100.04 63.576C99.592 62.712 99.368 61.688 99.368 60.504V52.704H102.728V60.024C102.728 61.08 102.992 61.896 103.52 62.472C104.048 63.032 104.768 63.312 105.68 63.312C106.608 63.312 107.336 63.032 107.864 62.472C108.392 61.896 108.656 61.08 108.656 60.024V52.704H112.04ZM122.723 52.512C124.307 52.512 125.587 53.016 126.563 54.024C127.539 55.016 128.027 56.408 128.027 58.2V66H124.667V58.656C124.667 57.6 124.403 56.792 123.875 56.232C123.347 55.656 122.627 55.368 121.715 55.368C120.787 55.368 120.051 55.656 119.507 56.232C118.979 56.792 118.715 57.6 118.715 58.656V66H115.355V52.704H118.715V54.36C119.163 53.784 119.731 53.336 120.419 53.016C121.123 52.68 121.891 52.512 122.723 52.512ZM135.134 55.464V61.896C135.134 62.344 135.238 62.672 135.446 62.88C135.67 63.072 136.038 63.168 136.55 63.168H138.11V66H135.998C133.166 66 131.75 64.624 131.75 61.872V55.464H130.166V52.704H131.75V49.416H135.134V52.704H138.11V55.464H135.134Z" fill="#001C7E"/>
<path d="M19.5683 89.07C19.1017 89.07 18.6817 88.99 18.3083 88.83C17.935 88.6633 17.6417 88.43 17.4283 88.13C17.215 87.83 17.1083 87.48 17.1083 87.08H18.3283C18.355 87.38 18.4717 87.6267 18.6783 87.82C18.8917 88.0133 19.1883 88.11 19.5683 88.11C19.9617 88.11 20.2683 88.0167 20.4883 87.83C20.7083 87.6367 20.8183 87.39 20.8183 87.09C20.8183 86.8567 20.7483 86.6667 20.6083 86.52C20.475 86.3733 20.305 86.26 20.0983 86.18C19.8983 86.1 19.6183 86.0133 19.2583 85.92C18.805 85.8 18.435 85.68 18.1483 85.56C17.8683 85.4333 17.6283 85.24 17.4283 84.98C17.2283 84.72 17.1283 84.3733 17.1283 83.94C17.1283 83.54 17.2283 83.19 17.4283 82.89C17.6283 82.59 17.9083 82.36 18.2683 82.2C18.6283 82.04 19.045 81.96 19.5183 81.96C20.1917 81.96 20.7417 82.13 21.1683 82.47C21.6017 82.8033 21.8417 83.2633 21.8883 83.85H20.6283C20.6083 83.5967 20.4883 83.38 20.2683 83.2C20.0483 83.02 19.7583 82.93 19.3983 82.93C19.0717 82.93 18.805 83.0133 18.5983 83.18C18.3917 83.3467 18.2883 83.5867 18.2883 83.9C18.2883 84.1133 18.3517 84.29 18.4783 84.43C18.6117 84.5633 18.7783 84.67 18.9783 84.75C19.1783 84.83 19.4517 84.9167 19.7983 85.01C20.2583 85.1367 20.6317 85.2633 20.9183 85.39C21.2117 85.5167 21.4583 85.7133 21.6583 85.98C21.865 86.24 21.9683 86.59 21.9683 87.03C21.9683 87.3833 21.8717 87.7167 21.6783 88.03C21.4917 88.3433 21.215 88.5967 20.8483 88.79C20.4883 88.9767 20.0617 89.07 19.5683 89.07ZM24.6435 84.42V87.47C24.6435 87.6767 24.6901 87.8267 24.7835 87.92C24.8835 88.0067 25.0501 88.05 25.2835 88.05H25.9835V89H25.0835C24.5701 89 24.1768 88.88 23.9035 88.64C23.6301 88.4 23.4935 88.01 23.4935 87.47V84.42H22.8435V83.49H23.4935V82.12H24.6435V83.49H25.9835V84.42H24.6435ZM26.6542 86.22C26.6542 85.6667 26.7675 85.1767 26.9942 84.75C27.2275 84.3233 27.5408 83.9933 27.9342 83.76C28.3342 83.52 28.7742 83.4 29.2542 83.4C29.6875 83.4 30.0642 83.4867 30.3842 83.66C30.7108 83.8267 30.9708 84.0367 31.1642 84.29V83.49H32.3142V89H31.1642V88.18C30.9708 88.44 30.7075 88.6567 30.3742 88.83C30.0408 89.0033 29.6608 89.09 29.2342 89.09C28.7608 89.09 28.3275 88.97 27.9342 88.73C27.5408 88.4833 27.2275 88.1433 26.9942 87.71C26.7675 87.27 26.6542 86.7733 26.6542 86.22ZM31.1642 86.24C31.1642 85.86 31.0842 85.53 30.9242 85.25C30.7708 84.97 30.5675 84.7567 30.3142 84.61C30.0608 84.4633 29.7875 84.39 29.4942 84.39C29.2008 84.39 28.9275 84.4633 28.6742 84.61C28.4208 84.75 28.2142 84.96 28.0542 85.24C27.9008 85.5133 27.8242 85.84 27.8242 86.22C27.8242 86.6 27.9008 86.9333 28.0542 87.22C28.2142 87.5067 28.4208 87.7267 28.6742 87.88C28.9342 88.0267 29.2075 88.1 29.4942 88.1C29.7875 88.1 30.0608 88.0267 30.3142 87.88C30.5675 87.7333 30.7708 87.52 30.9242 87.24C31.0842 86.9533 31.1642 86.62 31.1642 86.24ZM34.9515 84.29C35.1182 84.01 35.3382 83.7933 35.6115 83.64C35.8915 83.48 36.2215 83.4 36.6015 83.4V84.58H36.3115C35.8649 84.58 35.5249 84.6933 35.2915 84.92C35.0649 85.1467 34.9515 85.54 34.9515 86.1V89H33.8115V83.49H34.9515V84.29ZM38.9794 84.42V87.47C38.9794 87.6767 39.0261 87.8267 39.1194 87.92C39.2194 88.0067 39.3861 88.05 39.6194 88.05H40.3194V89H39.4194C38.9061 89 38.5127 88.88 38.2394 88.64C37.9661 88.4 37.8294 88.01 37.8294 87.47V84.42H37.1794V83.49H37.8294V82.12H38.9794V83.49H40.3194V84.42H38.9794ZM46.4201 86.11C46.4201 86.3167 46.4068 86.5033 46.3801 86.67H42.1701C42.2035 87.11 42.3668 87.4633 42.6601 87.73C42.9535 87.9967 43.3135 88.13 43.7401 88.13C44.3535 88.13 44.7868 87.8733 45.0401 87.36H46.2701C46.1035 87.8667 45.8001 88.2833 45.3601 88.61C44.9268 88.93 44.3868 89.09 43.7401 89.09C43.2135 89.09 42.7401 88.9733 42.3201 88.74C41.9068 88.5 41.5801 88.1667 41.3401 87.74C41.1068 87.3067 40.9901 86.8067 40.9901 86.24C40.9901 85.6733 41.1035 85.1767 41.3301 84.75C41.5635 84.3167 41.8868 83.9833 42.3001 83.75C42.7201 83.5167 43.2001 83.4 43.7401 83.4C44.2601 83.4 44.7235 83.5133 45.1301 83.74C45.5368 83.9667 45.8535 84.2867 46.0801 84.7C46.3068 85.1067 46.4201 85.5767 46.4201 86.11ZM45.2301 85.75C45.2235 85.33 45.0735 84.9933 44.7801 84.74C44.4868 84.4867 44.1235 84.36 43.6901 84.36C43.2968 84.36 42.9601 84.4867 42.6801 84.74C42.4001 84.9867 42.2335 85.3233 42.1801 85.75H45.2301ZM47.162 86.22C47.162 85.6667 47.2753 85.1767 47.502 84.75C47.7353 84.3233 48.0487 83.9933 48.442 83.76C48.842 83.52 49.2853 83.4 49.772 83.4C50.132 83.4 50.4853 83.48 50.832 83.64C51.1853 83.7933 51.4653 84 51.672 84.26V81.6H52.822V89H51.672V88.17C51.4853 88.4367 51.2253 88.6567 50.892 88.83C50.5653 89.0033 50.1887 89.09 49.762 89.09C49.282 89.09 48.842 88.97 48.442 88.73C48.0487 88.4833 47.7353 88.1433 47.502 87.71C47.2753 87.27 47.162 86.7733 47.162 86.22ZM51.672 86.24C51.672 85.86 51.592 85.53 51.432 85.25C51.2787 84.97 51.0753 84.7567 50.822 84.61C50.5687 84.4633 50.2953 84.39 50.002 84.39C49.7087 84.39 49.4353 84.4633 49.182 84.61C48.9287 84.75 48.722 84.96 48.562 85.24C48.4087 85.5133 48.332 85.84 48.332 86.22C48.332 86.6 48.4087 86.9333 48.562 87.22C48.722 87.5067 48.9287 87.7267 49.182 87.88C49.442 88.0267 49.7153 88.1 50.002 88.1C50.2953 88.1 50.5687 88.0267 50.822 87.88C51.0753 87.7333 51.2787 87.52 51.432 87.24C51.592 86.9533 51.672 86.62 51.672 86.24ZM58.917 89.09C58.4837 89.09 58.0937 89.0133 57.747 88.86C57.407 88.7 57.137 88.4867 56.937 88.22C56.737 87.9467 56.6303 87.6433 56.617 87.31H57.797C57.817 87.5433 57.927 87.74 58.127 87.9C58.3337 88.0533 58.5903 88.13 58.897 88.13C59.217 88.13 59.4637 88.07 59.637 87.95C59.817 87.8233 59.907 87.6633 59.907 87.47C59.907 87.2633 59.807 87.11 59.607 87.01C59.4137 86.91 59.1037 86.8 58.677 86.68C58.2637 86.5667 57.927 86.4567 57.667 86.35C57.407 86.2433 57.1803 86.08 56.987 85.86C56.8003 85.64 56.707 85.35 56.707 84.99C56.707 84.6967 56.7937 84.43 56.967 84.19C57.1403 83.9433 57.387 83.75 57.707 83.61C58.0337 83.47 58.407 83.4 58.827 83.4C59.4537 83.4 59.957 83.56 60.337 83.88C60.7237 84.1933 60.9303 84.6233 60.957 85.17H59.817C59.797 84.9233 59.697 84.7267 59.517 84.58C59.337 84.4333 59.0937 84.36 58.787 84.36C58.487 84.36 58.257 84.4167 58.097 84.53C57.937 84.6433 57.857 84.7933 57.857 84.98C57.857 85.1267 57.9103 85.25 58.017 85.35C58.1237 85.45 58.2537 85.53 58.407 85.59C58.5603 85.6433 58.787 85.7133 59.087 85.8C59.487 85.9067 59.8137 86.0167 60.067 86.13C60.327 86.2367 60.5503 86.3967 60.737 86.61C60.9237 86.8233 61.0203 87.1067 61.027 87.46C61.027 87.7733 60.9403 88.0533 60.767 88.3C60.5937 88.5467 60.347 88.74 60.027 88.88C59.7137 89.02 59.3437 89.09 58.917 89.09ZM67.3088 86.11C67.3088 86.3167 67.2955 86.5033 67.2688 86.67H63.0588C63.0921 87.11 63.2555 87.4633 63.5488 87.73C63.8421 87.9967 64.2021 88.13 64.6288 88.13C65.2421 88.13 65.6755 87.8733 65.9288 87.36H67.1588C66.9921 87.8667 66.6888 88.2833 66.2488 88.61C65.8155 88.93 65.2755 89.09 64.6288 89.09C64.1021 89.09 63.6288 88.9733 63.2088 88.74C62.7955 88.5 62.4688 88.1667 62.2288 87.74C61.9955 87.3067 61.8788 86.8067 61.8788 86.24C61.8788 85.6733 61.9921 85.1767 62.2188 84.75C62.4521 84.3167 62.7755 83.9833 63.1888 83.75C63.6088 83.5167 64.0888 83.4 64.6288 83.4C65.1488 83.4 65.6121 83.5133 66.0188 83.74C66.4255 83.9667 66.7421 84.2867 66.9688 84.7C67.1955 85.1067 67.3088 85.5767 67.3088 86.11ZM66.1188 85.75C66.1121 85.33 65.9621 84.9933 65.6688 84.74C65.3755 84.4867 65.0121 84.36 64.5788 84.36C64.1855 84.36 63.8488 84.4867 63.5688 84.74C63.2888 84.9867 63.1221 85.3233 63.0688 85.75H66.1188ZM70.5607 87.98L72.1207 83.49H73.3307L71.2307 89H69.8707L67.7807 83.49H69.0007L70.5607 87.98ZM79.2424 86.11C79.2424 86.3167 79.229 86.5033 79.2024 86.67H74.9924C75.0257 87.11 75.189 87.4633 75.4824 87.73C75.7757 87.9967 76.1357 88.13 76.5624 88.13C77.1757 88.13 77.609 87.8733 77.8624 87.36H79.0924C78.9257 87.8667 78.6224 88.2833 78.1824 88.61C77.749 88.93 77.209 89.09 76.5624 89.09C76.0357 89.09 75.5624 88.9733 75.1424 88.74C74.729 88.5 74.4024 88.1667 74.1624 87.74C73.929 87.3067 73.8124 86.8067 73.8124 86.24C73.8124 85.6733 73.9257 85.1767 74.1524 84.75C74.3857 84.3167 74.709 83.9833 75.1224 83.75C75.5424 83.5167 76.0224 83.4 76.5624 83.4C77.0824 83.4 77.5457 83.5133 77.9524 83.74C78.359 83.9667 78.6757 84.2867 78.9024 84.7C79.129 85.1067 79.2424 85.5767 79.2424 86.11ZM78.0524 85.75C78.0457 85.33 77.8957 84.9933 77.6024 84.74C77.309 84.4867 76.9457 84.36 76.5124 84.36C76.119 84.36 75.7824 84.4867 75.5024 84.74C75.2224 84.9867 75.0557 85.3233 75.0024 85.75H78.0524ZM81.5043 84.29C81.6709 84.01 81.8909 83.7933 82.1643 83.64C82.4443 83.48 82.7743 83.4 83.1543 83.4V84.58H82.8643C82.4176 84.58 82.0776 84.6933 81.8443 84.92C81.6176 85.1467 81.5043 85.54 81.5043 86.1V89H80.3643V83.49H81.5043V84.29ZM83.8221 86.22C83.8221 85.6667 83.9355 85.1767 84.1621 84.75C84.3955 84.3233 84.7088 83.9933 85.1021 83.76C85.5021 83.52 85.9421 83.4 86.4221 83.4C86.8555 83.4 87.2321 83.4867 87.5521 83.66C87.8788 83.8267 88.1388 84.0367 88.3321 84.29V83.49H89.4821V89H88.3321V88.18C88.1388 88.44 87.8755 88.6567 87.5421 88.83C87.2088 89.0033 86.8288 89.09 86.4021 89.09C85.9288 89.09 85.4955 88.97 85.1021 88.73C84.7088 88.4833 84.3955 88.1433 84.1621 87.71C83.9355 87.27 83.8221 86.7733 83.8221 86.22ZM88.3321 86.24C88.3321 85.86 88.2521 85.53 88.0921 85.25C87.9388 84.97 87.7355 84.7567 87.4821 84.61C87.2288 84.4633 86.9555 84.39 86.6621 84.39C86.3688 84.39 86.0955 84.4633 85.8421 84.61C85.5888 84.75 85.3821 84.96 85.2221 85.24C85.0688 85.5133 84.9921 85.84 84.9921 86.22C84.9921 86.6 85.0688 86.9333 85.2221 87.22C85.3821 87.5067 85.5888 87.7267 85.8421 87.88C86.1021 88.0267 86.3755 88.1 86.6621 88.1C86.9555 88.1 87.2288 88.0267 87.4821 87.88C87.7355 87.7333 87.9388 87.52 88.0921 87.24C88.2521 86.9533 88.3321 86.62 88.3321 86.24ZM92.1195 81.6V89H90.9795V81.6H92.1195ZM102.884 83.4C103.317 83.4 103.704 83.49 104.044 83.67C104.391 83.85 104.661 84.1167 104.854 84.47C105.054 84.8233 105.154 85.25 105.154 85.75V89H104.024V85.92C104.024 85.4267 103.901 85.05 103.654 84.79C103.407 84.5233 103.071 84.39 102.644 84.39C102.217 84.39 101.877 84.5233 101.624 84.79C101.377 85.05 101.254 85.4267 101.254 85.92V89H100.124V85.92C100.124 85.4267 100.001 85.05 99.7539 84.79C99.5072 84.5233 99.1705 84.39 98.7439 84.39C98.3172 84.39 97.9772 84.5233 97.7239 84.79C97.4772 85.05 97.3539 85.4267 97.3539 85.92V89H96.2139V83.49H97.3539V84.12C97.5405 83.8933 97.7772 83.7167 98.0639 83.59C98.3505 83.4633 98.6572 83.4 98.9839 83.4C99.4239 83.4 99.8172 83.4933 100.164 83.68C100.511 83.8667 100.777 84.1367 100.964 84.49C101.131 84.1567 101.391 83.8933 101.744 83.7C102.097 83.5 102.477 83.4 102.884 83.4ZM107.184 82.76C106.978 82.76 106.804 82.69 106.664 82.55C106.524 82.41 106.454 82.2367 106.454 82.03C106.454 81.8233 106.524 81.65 106.664 81.51C106.804 81.37 106.978 81.3 107.184 81.3C107.384 81.3 107.554 81.37 107.694 81.51C107.834 81.65 107.904 81.8233 107.904 82.03C107.904 82.2367 107.834 82.41 107.694 82.55C107.554 82.69 107.384 82.76 107.184 82.76ZM107.744 83.49V89H106.604V83.49H107.744ZM111.241 89.09C110.808 89.09 110.418 89.0133 110.071 88.86C109.731 88.7 109.461 88.4867 109.261 88.22C109.061 87.9467 108.955 87.6433 108.941 87.31H110.121C110.141 87.5433 110.251 87.74 110.451 87.9C110.658 88.0533 110.915 88.13 111.221 88.13C111.541 88.13 111.788 88.07 111.961 87.95C112.141 87.8233 112.231 87.6633 112.231 87.47C112.231 87.2633 112.131 87.11 111.931 87.01C111.738 86.91 111.428 86.8 111.001 86.68C110.588 86.5667 110.251 86.4567 109.991 86.35C109.731 86.2433 109.505 86.08 109.311 85.86C109.125 85.64 109.031 85.35 109.031 84.99C109.031 84.6967 109.118 84.43 109.291 84.19C109.465 83.9433 109.711 83.75 110.031 83.61C110.358 83.47 110.731 83.4 111.151 83.4C111.778 83.4 112.281 83.56 112.661 83.88C113.048 84.1933 113.255 84.6233 113.281 85.17H112.141C112.121 84.9233 112.021 84.7267 111.841 84.58C111.661 84.4333 111.418 84.36 111.111 84.36C110.811 84.36 110.581 84.4167 110.421 84.53C110.261 84.6433 110.181 84.7933 110.181 84.98C110.181 85.1267 110.235 85.25 110.341 85.35C110.448 85.45 110.578 85.53 110.731 85.59C110.885 85.6433 111.111 85.7133 111.411 85.8C111.811 85.9067 112.138 86.0167 112.391 86.13C112.651 86.2367 112.875 86.3967 113.061 86.61C113.248 86.8233 113.345 87.1067 113.351 87.46C113.351 87.7733 113.265 88.0533 113.091 88.3C112.918 88.5467 112.671 88.74 112.351 88.88C112.038 89.02 111.668 89.09 111.241 89.09ZM115.913 84.42V87.47C115.913 87.6767 115.96 87.8267 116.053 87.92C116.153 88.0067 116.32 88.05 116.553 88.05H117.253V89H116.353C115.84 89 115.446 88.88 115.173 88.64C114.9 88.4 114.763 88.01 114.763 87.47V84.42H114.113V83.49H114.763V82.12H115.913V83.49H117.253V84.42H115.913ZM117.924 86.22C117.924 85.6667 118.037 85.1767 118.264 84.75C118.497 84.3233 118.81 83.9933 119.204 83.76C119.604 83.52 120.044 83.4 120.524 83.4C120.957 83.4 121.334 83.4867 121.654 83.66C121.98 83.8267 122.24 84.0367 122.434 84.29V83.49H123.584V89H122.434V88.18C122.24 88.44 121.977 88.6567 121.644 88.83C121.31 89.0033 120.93 89.09 120.504 89.09C120.03 89.09 119.597 88.97 119.204 88.73C118.81 88.4833 118.497 88.1433 118.264 87.71C118.037 87.27 117.924 86.7733 117.924 86.22ZM122.434 86.24C122.434 85.86 122.354 85.53 122.194 85.25C122.04 84.97 121.837 84.7567 121.584 84.61C121.33 84.4633 121.057 84.39 120.764 84.39C120.47 84.39 120.197 84.4633 119.944 84.61C119.69 84.75 119.484 84.96 119.324 85.24C119.17 85.5133 119.094 85.84 119.094 86.22C119.094 86.6 119.17 86.9333 119.324 87.22C119.484 87.5067 119.69 87.7267 119.944 87.88C120.204 88.0267 120.477 88.1 120.764 88.1C121.057 88.1 121.33 88.0267 121.584 87.88C121.837 87.7333 122.04 87.52 122.194 87.24C122.354 86.9533 122.434 86.62 122.434 86.24ZM127.261 86.25L129.801 89H128.261L126.221 86.63V89H125.081V81.6H126.221V85.9L128.221 83.49H129.801L127.261 86.25ZM135.668 86.11C135.668 86.3167 135.655 86.5033 135.628 86.67H131.418C131.451 87.11 131.615 87.4633 131.908 87.73C132.201 87.9967 132.561 88.13 132.988 88.13C133.601 88.13 134.035 87.8733 134.288 87.36H135.518C135.351 87.8667 135.048 88.2833 134.608 88.61C134.175 88.93 133.635 89.09 132.988 89.09C132.461 89.09 131.988 88.9733 131.568 88.74C131.155 88.5 130.828 88.1667 130.588 87.74C130.355 87.3067 130.238 86.8067 130.238 86.24C130.238 85.6733 130.351 85.1767 130.578 84.75C130.811 84.3167 131.135 83.9833 131.548 83.75C131.968 83.5167 132.448 83.4 132.988 83.4C133.508 83.4 133.971 83.5133 134.378 83.74C134.785 83.9667 135.101 84.2867 135.328 84.7C135.555 85.1067 135.668 85.5767 135.668 86.11ZM134.478 85.75C134.471 85.33 134.321 84.9933 134.028 84.74C133.735 84.4867 133.371 84.36 132.938 84.36C132.545 84.36 132.208 84.4867 131.928 84.74C131.648 84.9867 131.481 85.3233 131.428 85.75H134.478ZM139.968 82.76C139.761 82.76 139.588 82.69 139.448 82.55C139.308 82.41 139.238 82.2367 139.238 82.03C139.238 81.8233 139.308 81.65 139.448 81.51C139.588 81.37 139.761 81.3 139.968 81.3C140.168 81.3 140.338 81.37 140.478 81.51C140.618 81.65 140.688 81.8233 140.688 82.03C140.688 82.2367 140.618 82.41 140.478 82.55C140.338 82.69 140.168 82.76 139.968 82.76ZM140.528 90.08C140.528 90.62 140.391 91.01 140.118 91.25C139.851 91.4967 139.461 91.62 138.948 91.62H138.358V90.66H138.748C138.981 90.66 139.144 90.6133 139.238 90.52C139.338 90.4333 139.388 90.2867 139.388 90.08V83.49H140.528V90.08ZM144.414 89.09C143.894 89.09 143.424 88.9733 143.004 88.74C142.584 88.5 142.254 88.1667 142.014 87.74C141.774 87.3067 141.654 86.8067 141.654 86.24C141.654 85.68 141.778 85.1833 142.024 84.75C142.271 84.3167 142.608 83.9833 143.034 83.75C143.461 83.5167 143.938 83.4 144.464 83.4C144.991 83.4 145.468 83.5167 145.894 83.75C146.321 83.9833 146.658 84.3167 146.904 84.75C147.151 85.1833 147.274 85.68 147.274 86.24C147.274 86.8 147.148 87.2967 146.894 87.73C146.641 88.1633 146.294 88.5 145.854 88.74C145.421 88.9733 144.941 89.09 144.414 89.09ZM144.414 88.1C144.708 88.1 144.981 88.03 145.234 87.89C145.494 87.75 145.704 87.54 145.864 87.26C146.024 86.98 146.104 86.64 146.104 86.24C146.104 85.84 146.028 85.5033 145.874 85.23C145.721 84.95 145.518 84.74 145.264 84.6C145.011 84.46 144.738 84.39 144.444 84.39C144.151 84.39 143.878 84.46 143.624 84.6C143.378 84.74 143.181 84.95 143.034 85.23C142.888 85.5033 142.814 85.84 142.814 86.24C142.814 86.8333 142.964 87.2933 143.264 87.62C143.571 87.94 143.954 88.1 144.414 88.1ZM153.361 83.49L149.981 91.59H148.801L149.921 88.91L147.751 83.49H149.021L150.571 87.69L152.181 83.49H153.361ZM26.4805 99.09C26.0471 99.09 25.6571 99.0133 25.3105 98.86C24.9705 98.7 24.7005 98.4867 24.5005 98.22C24.3005 97.9467 24.1938 97.6433 24.1805 97.31H25.3605C25.3805 97.5433 25.4905 97.74 25.6905 97.9C25.8971 98.0533 26.1538 98.13 26.4605 98.13C26.7805 98.13 27.0271 98.07 27.2005 97.95C27.3805 97.8233 27.4705 97.6633 27.4705 97.47C27.4705 97.2633 27.3705 97.11 27.1705 97.01C26.9771 96.91 26.6671 96.8 26.2405 96.68C25.8271 96.5667 25.4905 96.4567 25.2305 96.35C24.9705 96.2433 24.7438 96.08 24.5505 95.86C24.3638 95.64 24.2705 95.35 24.2705 94.99C24.2705 94.6967 24.3571 94.43 24.5305 94.19C24.7038 93.9433 24.9505 93.75 25.2705 93.61C25.5971 93.47 25.9705 93.4 26.3905 93.4C27.0171 93.4 27.5205 93.56 27.9005 93.88C28.2871 94.1933 28.4938 94.6233 28.5205 95.17H27.3805C27.3605 94.9233 27.2605 94.7267 27.0805 94.58C26.9005 94.4333 26.6571 94.36 26.3505 94.36C26.0505 94.36 25.8205 94.4167 25.6605 94.53C25.5005 94.6433 25.4205 94.7933 25.4205 94.98C25.4205 95.1267 25.4738 95.25 25.5805 95.35C25.6871 95.45 25.8171 95.53 25.9705 95.59C26.1238 95.6433 26.3505 95.7133 26.6505 95.8C27.0505 95.9067 27.3771 96.0167 27.6305 96.13C27.8905 96.2367 28.1138 96.3967 28.3005 96.61C28.4871 96.8233 28.5838 97.1067 28.5905 97.46C28.5905 97.7733 28.5038 98.0533 28.3305 98.3C28.1571 98.5467 27.9105 98.74 27.5905 98.88C27.2771 99.02 26.9071 99.09 26.4805 99.09ZM29.4423 96.22C29.4423 95.6667 29.5556 95.1767 29.7823 94.75C30.0156 94.3233 30.3289 93.9933 30.7223 93.76C31.1223 93.52 31.5623 93.4 32.0423 93.4C32.4756 93.4 32.8523 93.4867 33.1723 93.66C33.4989 93.8267 33.7589 94.0367 33.9523 94.29V93.49H35.1023V99H33.9523V98.18C33.7589 98.44 33.4956 98.6567 33.1623 98.83C32.8289 99.0033 32.4489 99.09 32.0223 99.09C31.5489 99.09 31.1156 98.97 30.7223 98.73C30.3289 98.4833 30.0156 98.1433 29.7823 97.71C29.5556 97.27 29.4423 96.7733 29.4423 96.22ZM33.9523 96.24C33.9523 95.86 33.8723 95.53 33.7123 95.25C33.5589 94.97 33.3556 94.7567 33.1023 94.61C32.8489 94.4633 32.5756 94.39 32.2823 94.39C31.9889 94.39 31.7156 94.4633 31.4623 94.61C31.2089 94.75 31.0023 94.96 30.8423 95.24C30.6889 95.5133 30.6123 95.84 30.6123 96.22C30.6123 96.6 30.6889 96.9333 30.8423 97.22C31.0023 97.5067 31.2089 97.7267 31.4623 97.88C31.7223 98.0267 31.9956 98.1 32.2823 98.1C32.5756 98.1 32.8489 98.0267 33.1023 97.88C33.3556 97.7333 33.5589 97.52 33.7123 97.24C33.8723 96.9533 33.9523 96.62 33.9523 96.24ZM41.5596 93.49L38.1796 101.59H36.9996L38.1196 98.91L35.9496 93.49H37.2196L38.7696 97.69L40.3796 93.49H41.5596ZM46.1576 94.3C46.3509 94.0467 46.6142 93.8333 46.9476 93.66C47.2809 93.4867 47.6576 93.4 48.0776 93.4C48.5576 93.4 48.9942 93.52 49.3876 93.76C49.7876 93.9933 50.1009 94.3233 50.3276 94.75C50.5542 95.1767 50.6676 95.6667 50.6676 96.22C50.6676 96.7733 50.5542 97.27 50.3276 97.71C50.1009 98.1433 49.7876 98.4833 49.3876 98.73C48.9942 98.97 48.5576 99.09 48.0776 99.09C47.6576 99.09 47.2842 99.0067 46.9576 98.84C46.6309 98.6667 46.3642 98.4533 46.1576 98.2V101.62H45.0176V93.49H46.1576V94.3ZM49.5076 96.22C49.5076 95.84 49.4276 95.5133 49.2676 95.24C49.1142 94.96 48.9076 94.75 48.6476 94.61C48.3942 94.4633 48.1209 94.39 47.8276 94.39C47.5409 94.39 47.2676 94.4633 47.0076 94.61C46.7542 94.7567 46.5476 94.97 46.3876 95.25C46.2342 95.53 46.1576 95.86 46.1576 96.24C46.1576 96.62 46.2342 96.9533 46.3876 97.24C46.5476 97.52 46.7542 97.7333 47.0076 97.88C47.2676 98.0267 47.5409 98.1 47.8276 98.1C48.1209 98.1 48.3942 98.0267 48.6476 97.88C48.9076 97.7267 49.1142 97.5067 49.2676 97.22C49.4276 96.9333 49.5076 96.6 49.5076 96.22ZM51.4149 96.22C51.4149 95.6667 51.5283 95.1767 51.7549 94.75C51.9883 94.3233 52.3016 93.9933 52.6949 93.76C53.0949 93.52 53.5349 93.4 54.0149 93.4C54.4483 93.4 54.8249 93.4867 55.1449 93.66C55.4716 93.8267 55.7316 94.0367 55.9249 94.29V93.49H57.0749V99H55.9249V98.18C55.7316 98.44 55.4683 98.6567 55.1349 98.83C54.8016 99.0033 54.4216 99.09 53.9949 99.09C53.5216 99.09 53.0883 98.97 52.6949 98.73C52.3016 98.4833 51.9883 98.1433 51.7549 97.71C51.5283 97.27 51.4149 96.7733 51.4149 96.22ZM55.9249 96.24C55.9249 95.86 55.8449 95.53 55.6849 95.25C55.5316 94.97 55.3283 94.7567 55.0749 94.61C54.8216 94.4633 54.5483 94.39 54.2549 94.39C53.9616 94.39 53.6883 94.4633 53.4349 94.61C53.1816 94.75 52.9749 94.96 52.8149 95.24C52.6616 95.5133 52.5849 95.84 52.5849 96.22C52.5849 96.6 52.6616 96.9333 52.8149 97.22C52.9749 97.5067 53.1816 97.7267 53.4349 97.88C53.6949 98.0267 53.9683 98.1 54.2549 98.1C54.5483 98.1 54.8216 98.0267 55.0749 97.88C55.3283 97.7333 55.5316 97.52 55.6849 97.24C55.8449 96.9533 55.9249 96.62 55.9249 96.24ZM59.1523 92.76C58.9456 92.76 58.7723 92.69 58.6323 92.55C58.4923 92.41 58.4223 92.2367 58.4223 92.03C58.4223 91.8233 58.4923 91.65 58.6323 91.51C58.7723 91.37 58.9456 91.3 59.1523 91.3C59.3523 91.3 59.5223 91.37 59.6623 91.51C59.8023 91.65 59.8723 91.8233 59.8723 92.03C59.8723 92.2367 59.8023 92.41 59.6623 92.55C59.5223 92.69 59.3523 92.76 59.1523 92.76ZM59.7123 93.49V99H58.5723V93.49H59.7123ZM63.989 93.4C64.4223 93.4 64.809 93.49 65.149 93.67C65.4957 93.85 65.7657 94.1167 65.959 94.47C66.1523 94.8233 66.249 95.25 66.249 95.75V99H65.119V95.92C65.119 95.4267 64.9957 95.05 64.749 94.79C64.5023 94.5233 64.1657 94.39 63.739 94.39C63.3123 94.39 62.9723 94.5233 62.719 94.79C62.4723 95.05 62.349 95.4267 62.349 95.92V99H61.209V93.49H62.349V94.12C62.5357 93.8933 62.7723 93.7167 63.059 93.59C63.3523 93.4633 63.6623 93.4 63.989 93.4ZM70.0131 94.42H68.9931V99H67.8431V94.42H67.1931V93.49H67.8431V93.1C67.8431 92.4667 68.0098 92.0067 68.3431 91.72C68.6831 91.4267 69.2131 91.28 69.9331 91.28V92.23C69.5865 92.23 69.3431 92.2967 69.2031 92.43C69.0631 92.5567 68.9931 92.78 68.9931 93.1V93.49H70.0131V94.42ZM76.0134 93.49V99H74.8734V98.35C74.6934 98.5767 74.4568 98.7567 74.1634 98.89C73.8768 99.0167 73.5701 99.08 73.2434 99.08C72.8101 99.08 72.4201 98.99 72.0734 98.81C71.7334 98.63 71.4634 98.3633 71.2634 98.01C71.0701 97.6567 70.9734 97.23 70.9734 96.73V93.49H72.1034V96.56C72.1034 97.0533 72.2268 97.4333 72.4734 97.7C72.7201 97.96 73.0568 98.09 73.4834 98.09C73.9101 98.09 74.2468 97.96 74.4934 97.7C74.7468 97.4333 74.8734 97.0533 74.8734 96.56V93.49H76.0134ZM78.6576 91.6V99H77.5176V91.6H78.6576ZM83.892 94.29C84.0586 94.01 84.2786 93.7933 84.552 93.64C84.832 93.48 85.162 93.4 85.542 93.4V94.58H85.252C84.8053 94.58 84.4653 94.6933 84.232 94.92C84.0053 95.1467 83.892 95.54 83.892 96.1V99H82.752V93.49H83.892V94.29ZM91.6398 96.11C91.6398 96.3167 91.6265 96.5033 91.5998 96.67H87.3898C87.4232 97.11 87.5865 97.4633 87.8798 97.73C88.1732 97.9967 88.5332 98.13 88.9598 98.13C89.5732 98.13 90.0065 97.8733 90.2598 97.36H91.4898C91.3232 97.8667 91.0198 98.2833 90.5798 98.61C90.1465 98.93 89.6065 99.09 88.9598 99.09C88.4332 99.09 87.9598 98.9733 87.5398 98.74C87.1265 98.5 86.7998 98.1667 86.5598 97.74C86.3265 97.3067 86.2098 96.8067 86.2098 96.24C86.2098 95.6733 86.3232 95.1767 86.5498 94.75C86.7832 94.3167 87.1065 93.9833 87.5198 93.75C87.9398 93.5167 88.4198 93.4 88.9598 93.4C89.4798 93.4 89.9432 93.5133 90.3498 93.74C90.7565 93.9667 91.0732 94.2867 91.2998 94.7C91.5265 95.1067 91.6398 95.5767 91.6398 96.11ZM90.4498 95.75C90.4432 95.33 90.2932 94.9933 89.9998 94.74C89.7065 94.4867 89.3432 94.36 88.9098 94.36C88.5165 94.36 88.1798 94.4867 87.8998 94.74C87.6198 94.9867 87.4532 95.3233 87.3998 95.75H90.4498ZM92.3817 96.22C92.3817 95.6667 92.4951 95.1767 92.7217 94.75C92.9551 94.3233 93.2684 93.9933 93.6617 93.76C94.0617 93.52 94.5017 93.4 94.9817 93.4C95.4151 93.4 95.7917 93.4867 96.1117 93.66C96.4384 93.8267 96.6984 94.0367 96.8917 94.29V93.49H98.0417V99H96.8917V98.18C96.6984 98.44 96.4351 98.6567 96.1017 98.83C95.7684 99.0033 95.3884 99.09 94.9617 99.09C94.4884 99.09 94.0551 98.97 93.6617 98.73C93.2684 98.4833 92.9551 98.1433 92.7217 97.71C92.4951 97.27 92.3817 96.7733 92.3817 96.22ZM96.8917 96.24C96.8917 95.86 96.8117 95.53 96.6517 95.25C96.4984 94.97 96.2951 94.7567 96.0417 94.61C95.7884 94.4633 95.5151 94.39 95.2217 94.39C94.9284 94.39 94.6551 94.4633 94.4017 94.61C94.1484 94.75 93.9417 94.96 93.7817 95.24C93.6284 95.5133 93.5517 95.84 93.5517 96.22C93.5517 96.6 93.6284 96.9333 93.7817 97.22C93.9417 97.5067 94.1484 97.7267 94.4017 97.88C94.6617 98.0267 94.9351 98.1 95.2217 98.1C95.5151 98.1 95.7884 98.0267 96.0417 97.88C96.2951 97.7333 96.4984 97.52 96.6517 97.24C96.8117 96.9533 96.8917 96.62 96.8917 96.24ZM99.1591 96.24C99.1591 95.6733 99.2724 95.1767 99.4991 94.75C99.7324 94.3167 100.052 93.9833 100.459 93.75C100.866 93.5167 101.332 93.4 101.859 93.4C102.526 93.4 103.076 93.56 103.509 93.88C103.949 94.1933 104.246 94.6433 104.399 95.23H103.169C103.069 94.9567 102.909 94.7433 102.689 94.59C102.469 94.4367 102.192 94.36 101.859 94.36C101.392 94.36 101.019 94.5267 100.739 94.86C100.466 95.1867 100.329 95.6467 100.329 96.24C100.329 96.8333 100.466 97.2967 100.739 97.63C101.019 97.9633 101.392 98.13 101.859 98.13C102.519 98.13 102.956 97.84 103.169 97.26H104.399C104.239 97.82 103.939 98.2667 103.499 98.6C103.059 98.9267 102.512 99.09 101.859 99.09C101.332 99.09 100.866 98.9733 100.459 98.74C100.052 98.5 99.7324 98.1667 99.4991 97.74C99.2724 97.3067 99.1591 96.8067 99.1591 96.24ZM108.385 93.4C108.805 93.4 109.178 93.49 109.505 93.67C109.838 93.85 110.098 94.1167 110.285 94.47C110.478 94.8233 110.575 95.25 110.575 95.75V99H109.445V95.92C109.445 95.4267 109.322 95.05 109.075 94.79C108.828 94.5233 108.492 94.39 108.065 94.39C107.638 94.39 107.298 94.5233 107.045 94.79C106.798 95.05 106.675 95.4267 106.675 95.92V99H105.535V91.6H106.675V94.13C106.868 93.8967 107.112 93.7167 107.405 93.59C107.705 93.4633 108.032 93.4 108.385 93.4ZM117.079 96.11C117.079 96.3167 117.066 96.5033 117.039 96.67H112.829C112.863 97.11 113.026 97.4633 113.319 97.73C113.613 97.9967 113.973 98.13 114.399 98.13C115.013 98.13 115.446 97.8733 115.699 97.36H116.929C116.763 97.8667 116.459 98.2833 116.019 98.61C115.586 98.93 115.046 99.09 114.399 99.09C113.873 99.09 113.399 98.9733 112.979 98.74C112.566 98.5 112.239 98.1667 111.999 97.74C111.766 97.3067 111.649 96.8067 111.649 96.24C111.649 95.6733 111.763 95.1767 111.989 94.75C112.223 94.3167 112.546 93.9833 112.959 93.75C113.379 93.5167 113.859 93.4 114.399 93.4C114.919 93.4 115.383 93.5133 115.789 93.74C116.196 93.9667 116.513 94.2867 116.739 94.7C116.966 95.1067 117.079 95.5767 117.079 96.11ZM115.889 95.75C115.883 95.33 115.733 94.9933 115.439 94.74C115.146 94.4867 114.783 94.36 114.349 94.36C113.956 94.36 113.619 94.4867 113.339 94.74C113.059 94.9867 112.893 95.3233 112.839 95.75H115.889ZM117.821 96.22C117.821 95.6667 117.935 95.1767 118.161 94.75C118.395 94.3233 118.708 93.9933 119.101 93.76C119.501 93.52 119.945 93.4 120.431 93.4C120.791 93.4 121.145 93.48 121.491 93.64C121.845 93.7933 122.125 94 122.331 94.26V91.6H123.481V99H122.331V98.17C122.145 98.4367 121.885 98.6567 121.551 98.83C121.225 99.0033 120.848 99.09 120.421 99.09C119.941 99.09 119.501 98.97 119.101 98.73C118.708 98.4833 118.395 98.1433 118.161 97.71C117.935 97.27 117.821 96.7733 117.821 96.22ZM122.331 96.24C122.331 95.86 122.251 95.53 122.091 95.25C121.938 94.97 121.735 94.7567 121.481 94.61C121.228 94.4633 120.955 94.39 120.661 94.39C120.368 94.39 120.095 94.4633 119.841 94.61C119.588 94.75 119.381 94.96 119.221 95.24C119.068 95.5133 118.991 95.84 118.991 96.22C118.991 96.6 119.068 96.9333 119.221 97.22C119.381 97.5067 119.588 97.7267 119.841 97.88C120.101 98.0267 120.375 98.1 120.661 98.1C120.955 98.1 121.228 98.0267 121.481 97.88C121.735 97.7333 121.938 97.52 122.091 97.24C122.251 96.9533 122.331 96.62 122.331 96.24ZM132.626 96.11C132.626 96.3167 132.613 96.5033 132.586 96.67H128.376C128.41 97.11 128.573 97.4633 128.866 97.73C129.16 97.9967 129.52 98.13 129.946 98.13C130.56 98.13 130.993 97.8733 131.246 97.36H132.476C132.31 97.8667 132.006 98.2833 131.566 98.61C131.133 98.93 130.593 99.09 129.946 99.09C129.42 99.09 128.946 98.9733 128.526 98.74C128.113 98.5 127.786 98.1667 127.546 97.74C127.313 97.3067 127.196 96.8067 127.196 96.24C127.196 95.6733 127.31 95.1767 127.536 94.75C127.77 94.3167 128.093 93.9833 128.506 93.75C128.926 93.5167 129.406 93.4 129.946 93.4C130.466 93.4 130.93 93.5133 131.336 93.74C131.743 93.9667 132.06 94.2867 132.286 94.7C132.513 95.1067 132.626 95.5767 132.626 96.11ZM131.436 95.75C131.43 95.33 131.28 94.9933 130.986 94.74C130.693 94.4867 130.33 94.36 129.896 94.36C129.503 94.36 129.166 94.4867 128.886 94.74C128.606 94.9867 128.44 95.3233 128.386 95.75H131.436ZM136.528 93.4C136.961 93.4 137.348 93.49 137.688 93.67C138.035 93.85 138.305 94.1167 138.498 94.47C138.691 94.8233 138.788 95.25 138.788 95.75V99H137.658V95.92C137.658 95.4267 137.535 95.05 137.288 94.79C137.041 94.5233 136.705 94.39 136.278 94.39C135.851 94.39 135.511 94.5233 135.258 94.79C135.011 95.05 134.888 95.4267 134.888 95.92V99H133.748V93.49H134.888V94.12C135.075 93.8933 135.311 93.7167 135.598 93.59C135.891 93.4633 136.201 93.4 136.528 93.4ZM139.862 96.22C139.862 95.6667 139.976 95.1767 140.202 94.75C140.436 94.3233 140.749 93.9933 141.142 93.76C141.542 93.52 141.986 93.4 142.472 93.4C142.832 93.4 143.186 93.48 143.532 93.64C143.886 93.7933 144.166 94 144.372 94.26V91.6H145.522V99H144.372V98.17C144.186 98.4367 143.926 98.6567 143.592 98.83C143.266 99.0033 142.889 99.09 142.462 99.09C141.982 99.09 141.542 98.97 141.142 98.73C140.749 98.4833 140.436 98.1433 140.202 97.71C139.976 97.27 139.862 96.7733 139.862 96.22ZM144.372 96.24C144.372 95.86 144.292 95.53 144.132 95.25C143.979 94.97 143.776 94.7567 143.522 94.61C143.269 94.4633 142.996 94.39 142.702 94.39C142.409 94.39 142.136 94.4633 141.882 94.61C141.629 94.75 141.422 94.96 141.262 95.24C141.109 95.5133 141.032 95.84 141.032 96.22C141.032 96.6 141.109 96.9333 141.262 97.22C141.422 97.5067 141.629 97.7267 141.882 97.88C142.142 98.0267 142.416 98.1 142.702 98.1C142.996 98.1 143.269 98.0267 143.522 97.88C143.776 97.7333 143.979 97.52 144.132 97.24C144.292 96.9533 144.372 96.62 144.372 96.24Z" fill="#001C7E"/>
<rect x="50" y="110" width="70" height="28" rx="4" fill="#001C7E"/>
<path d="M63.3379 128.07C62.8712 128.07 62.4512 127.99 62.0779 127.83C61.7045 127.663 61.4112 127.43 61.1979 127.13C60.9845 126.83 60.8779 126.48 60.8779 126.08H62.0979C62.1245 126.38 62.2412 126.627 62.4479 126.82C62.6612 127.013 62.9579 127.11 63.3379 127.11C63.7312 127.11 64.0379 127.017 64.2579 126.83C64.4779 126.637 64.5879 126.39 64.5879 126.09C64.5879 125.857 64.5179 125.667 64.3779 125.52C64.2445 125.373 64.0745 125.26 63.8679 125.18C63.6679 125.1 63.3879 125.013 63.0279 124.92C62.5745 124.8 62.2045 124.68 61.9179 124.56C61.6379 124.433 61.3979 124.24 61.1979 123.98C60.9979 123.72 60.8979 123.373 60.8979 122.94C60.8979 122.54 60.9979 122.19 61.1979 121.89C61.3979 121.59 61.6779 121.36 62.0379 121.2C62.3979 121.04 62.8145 120.96 63.2879 120.96C63.9612 120.96 64.5112 121.13 64.9379 121.47C65.3712 121.803 65.6112 122.263 65.6579 122.85H64.3979C64.3779 122.597 64.2579 122.38 64.0379 122.2C63.8179 122.02 63.5279 121.93 63.1679 121.93C62.8412 121.93 62.5745 122.013 62.3679 122.18C62.1612 122.347 62.0579 122.587 62.0579 122.9C62.0579 123.113 62.1212 123.29 62.2479 123.43C62.3812 123.563 62.5479 123.67 62.7479 123.75C62.9479 123.83 63.2212 123.917 63.5679 124.01C64.0279 124.137 64.4012 124.263 64.6879 124.39C64.9812 124.517 65.2279 124.713 65.4279 124.98C65.6345 125.24 65.7379 125.59 65.7379 126.03C65.7379 126.383 65.6412 126.717 65.4479 127.03C65.2612 127.343 64.9845 127.597 64.6179 127.79C64.2579 127.977 63.8312 128.07 63.3379 128.07ZM69.933 122.4C70.353 122.4 70.7263 122.49 71.053 122.67C71.3863 122.85 71.6463 123.117 71.833 123.47C72.0263 123.823 72.123 124.25 72.123 124.75V128H70.993V124.92C70.993 124.427 70.8697 124.05 70.623 123.79C70.3763 123.523 70.0397 123.39 69.613 123.39C69.1863 123.39 68.8463 123.523 68.593 123.79C68.3463 124.05 68.223 124.427 68.223 124.92V128H67.083V120.6H68.223V123.13C68.4163 122.897 68.6597 122.717 68.953 122.59C69.253 122.463 69.5797 122.4 69.933 122.4ZM75.9671 128.09C75.4471 128.09 74.9771 127.973 74.5571 127.74C74.1371 127.5 73.8071 127.167 73.5671 126.74C73.3271 126.307 73.2071 125.807 73.2071 125.24C73.2071 124.68 73.3305 124.183 73.5771 123.75C73.8238 123.317 74.1605 122.983 74.5871 122.75C75.0138 122.517 75.4905 122.4 76.0171 122.4C76.5438 122.4 77.0205 122.517 77.4471 122.75C77.8738 122.983 78.2105 123.317 78.4571 123.75C78.7038 124.183 78.8271 124.68 78.8271 125.24C78.8271 125.8 78.7005 126.297 78.4471 126.73C78.1938 127.163 77.8471 127.5 77.4071 127.74C76.9738 127.973 76.4938 128.09 75.9671 128.09ZM75.9671 127.1C76.2605 127.1 76.5338 127.03 76.7871 126.89C77.0471 126.75 77.2571 126.54 77.4171 126.26C77.5771 125.98 77.6571 125.64 77.6571 125.24C77.6571 124.84 77.5805 124.503 77.4271 124.23C77.2738 123.95 77.0705 123.74 76.8171 123.6C76.5638 123.46 76.2905 123.39 75.9971 123.39C75.7038 123.39 75.4305 123.46 75.1771 123.6C74.9305 123.74 74.7338 123.95 74.5871 124.23C74.4405 124.503 74.3671 124.84 74.3671 125.24C74.3671 125.833 74.5171 126.293 74.8171 126.62C75.1238 126.94 75.5071 127.1 75.9671 127.1ZM81.0941 123.3C81.2874 123.047 81.5508 122.833 81.8841 122.66C82.2174 122.487 82.5941 122.4 83.0141 122.4C83.4941 122.4 83.9308 122.52 84.3241 122.76C84.7241 122.993 85.0374 123.323 85.2641 123.75C85.4908 124.177 85.6041 124.667 85.6041 125.22C85.6041 125.773 85.4908 126.27 85.2641 126.71C85.0374 127.143 84.7241 127.483 84.3241 127.73C83.9308 127.97 83.4941 128.09 83.0141 128.09C82.5941 128.09 82.2208 128.007 81.8941 127.84C81.5674 127.667 81.3008 127.453 81.0941 127.2V130.62H79.9541V122.49H81.0941V123.3ZM84.4441 125.22C84.4441 124.84 84.3641 124.513 84.2041 124.24C84.0508 123.96 83.8441 123.75 83.5841 123.61C83.3308 123.463 83.0574 123.39 82.7641 123.39C82.4774 123.39 82.2041 123.463 81.9441 123.61C81.6908 123.757 81.4841 123.97 81.3241 124.25C81.1708 124.53 81.0941 124.86 81.0941 125.24C81.0941 125.62 81.1708 125.953 81.3241 126.24C81.4841 126.52 81.6908 126.733 81.9441 126.88C82.2041 127.027 82.4774 127.1 82.7641 127.1C83.0574 127.1 83.3308 127.027 83.5841 126.88C83.8441 126.727 84.0508 126.507 84.2041 126.22C84.3641 125.933 84.4441 125.6 84.4441 125.22ZM92.1091 122.4C92.5424 122.4 92.9291 122.49 93.2691 122.67C93.6158 122.85 93.8858 123.117 94.0791 123.47C94.2724 123.823 94.3691 124.25 94.3691 124.75V128H93.2391V124.92C93.2391 124.427 93.1158 124.05 92.8691 123.79C92.6224 123.523 92.2858 123.39 91.8591 123.39C91.4324 123.39 91.0924 123.523 90.8391 123.79C90.5924 124.05 90.4691 124.427 90.4691 124.92V128H89.3291V122.49H90.4691V123.12C90.6558 122.893 90.8924 122.717 91.1791 122.59C91.4724 122.463 91.7824 122.4 92.1091 122.4ZM98.2132 128.09C97.6932 128.09 97.2232 127.973 96.8032 127.74C96.3832 127.5 96.0532 127.167 95.8132 126.74C95.5732 126.307 95.4532 125.807 95.4532 125.24C95.4532 124.68 95.5766 124.183 95.8232 123.75C96.0699 123.317 96.4066 122.983 96.8332 122.75C97.2599 122.517 97.7366 122.4 98.2632 122.4C98.7899 122.4 99.2666 122.517 99.6932 122.75C100.12 122.983 100.457 123.317 100.703 123.75C100.95 124.183 101.073 124.68 101.073 125.24C101.073 125.8 100.947 126.297 100.693 126.73C100.44 127.163 100.093 127.5 99.6532 127.74C99.2199 127.973 98.7399 128.09 98.2132 128.09ZM98.2132 127.1C98.5066 127.1 98.7799 127.03 99.0332 126.89C99.2932 126.75 99.5032 126.54 99.6632 126.26C99.8232 125.98 99.9032 125.64 99.9032 125.24C99.9032 124.84 99.8266 124.503 99.6732 124.23C99.5199 123.95 99.3166 123.74 99.0632 123.6C98.8099 123.46 98.5366 123.39 98.2432 123.39C97.9499 123.39 97.6766 123.46 97.4232 123.6C97.1766 123.74 96.9799 123.95 96.8332 124.23C96.6866 124.503 96.6132 124.84 96.6132 125.24C96.6132 125.833 96.7632 126.293 97.0632 126.62C97.3699 126.94 97.7532 127.1 98.2132 127.1ZM109.6 122.49L107.89 128H106.69L105.58 123.93L104.47 128H103.27L101.55 122.49H102.71L103.86 126.92L105.03 122.49H106.22L107.34 126.9L108.48 122.49H109.6Z" fill="white"/>
<path d="M170 0H349C352.314 0 355 2.68629 355 6V154C355 157.314 352.314 160 349 160H170V0Z"/>
</g>
<defs>
<clipPath id="clip0_89_1115">
<rect width="355" height="160" rx="6" fill="white"/>
</clipPath>
</defs>
</svg>
